<svg width="849" height="204" viewBox="0 0 849 204" fill="none" xmlns="http://www.w3.org/2000/svg">
<path d="M9.90638 52.9093C9.90638 26.4759 32.1987 7.73584 63.5658 7.73584C94.9329 7.73584 114.661 25.0951 114.661 52.7121H82.899C82.899 42.4543 75.2052 36.1419 63.1712 36.1419C50.1509 36.1419 41.8653 42.0598 41.8653 51.7257C41.8653 60.6026 46.4027 64.9424 56.6611 67.1123L78.5589 71.6494C104.599 76.9756 117.028 89.4032 117.028 112.483C117.028 140.692 94.9329 159.037 61.3957 159.037C28.845 159.037 7.73633 141.481 7.73633 114.061H39.498C39.498 124.713 47.3891 130.631 61.593 130.631C75.9943 130.631 85.069 124.911 85.069 115.639C85.069 107.552 81.3207 103.409 71.6542 101.436L49.3618 96.8992C23.3212 91.5731 9.90638 76.7783 9.90638 52.9093ZM164.843 156.473H134.462V7.73584H165.04V68.0987C171.156 59.6163 182.401 54.6847 195.223 54.6847C218.699 54.6847 232.311 69.6768 232.311 95.5184V156.473H201.931V102.817C201.931 90.3895 195.026 82.3017 184.571 82.3017C172.537 82.3017 164.843 90.1923 164.843 102.423V156.473ZM248.774 106.96C248.774 75.792 271.659 54.882 303.223 54.882C334.59 54.882 357.474 75.792 357.474 106.96C357.474 138.127 334.59 158.84 303.223 158.84C271.659 158.84 248.774 138.127 248.774 106.96ZM279.352 106.762C279.352 121.755 289.019 131.618 303.223 131.618C317.23 131.618 326.896 121.755 326.896 106.762C326.896 91.9676 317.23 82.1044 303.223 82.1044C289.019 82.1044 279.352 91.9676 279.352 106.762ZM375.086 203.816V57.8409H403.691L405.269 69.874C410.793 60.7999 423.222 54.6847 437.228 54.6847C464.65 54.6847 483.786 73.8193 483.786 105.579C483.786 136.747 466.82 159.235 437.426 159.235C423.813 159.235 411.188 154.106 405.467 146.61V203.816H375.086ZM405.664 107.157C405.664 121.952 415.528 131.815 429.732 131.815C444.133 131.815 453.208 121.755 453.208 107.157C453.208 92.5594 444.133 82.499 429.732 82.499C415.528 82.499 405.664 92.3622 405.664 107.157ZM494.174 125.305H522.976C523.371 132.21 528.5 136.352 537.772 136.352C547.241 136.352 551.581 132.999 551.581 127.87C551.581 124.911 550.003 121.755 542.704 120.176L524.554 116.231C506.405 112.286 497.527 104.395 497.527 87.036C497.527 66.5206 515.085 54.6847 538.758 54.6847C561.643 54.6847 577.622 68.0987 577.622 88.0223H548.82C548.82 81.3154 544.677 76.7783 537.377 76.7783C530.473 76.7783 526.133 80.329 526.133 85.6552C526.133 90.1923 529.881 92.7567 536.786 94.3348L555.132 98.2801C571.309 101.831 580.187 109.327 580.187 125.108C580.187 146.215 562.234 159.037 536.588 159.037C510.548 159.037 494.174 145.229 494.174 125.305ZM635.91 156.473H605.529V83.0907H586.788V57.8409H605.529V27.265H635.91V57.8409H654.651V83.0907H635.91V156.473ZM713.111 159.037C683.322 159.037 662.016 137.338 662.016 106.96C662.016 76.1865 682.73 54.6847 712.519 54.6847C743.492 54.6847 762.825 75.0029 762.825 107.157V114.85L691.213 115.245C692.989 128.264 700.288 134.379 713.703 134.379C725.145 134.379 733.233 130.237 735.403 123.135H763.219C759.668 145.032 740.138 159.037 713.111 159.037ZM712.716 79.3427C700.682 79.3427 693.975 84.6689 691.608 96.5047H732.641C732.641 86.0497 724.948 79.3427 712.716 79.3427ZM848.679 57.8409V86.4442H839.012C821.652 86.4442 811.196 94.1375 811.196 113.667V156.473H780.816V58.0382H809.421L810.999 72.6357C815.142 62.9698 823.822 56.4601 837.04 56.4601C840.591 56.4601 844.536 56.8546 848.679 57.8409Z" fill="#AAAAAA"/>
<path d="M7.9723 50.9754C7.9723 24.542 30.2646 5.80188 61.6317 5.80188C92.9988 5.80188 112.727 23.1611 112.727 50.7781H80.9649C80.9649 40.5204 73.2711 34.2079 61.2372 34.2079C48.2169 34.2079 39.9312 40.1258 39.9312 49.7918C39.9312 58.6687 44.4686 63.0085 54.727 65.1784L76.6248 69.7155C102.665 75.0416 115.094 87.4692 115.094 110.549C115.094 138.758 92.9988 157.103 59.4617 157.103C26.9109 157.103 5.80225 139.547 5.80225 112.127H37.5639C37.5639 122.78 45.455 128.697 59.6589 128.697C74.0602 128.697 83.1349 122.977 83.1349 113.705C83.1349 105.618 79.3867 101.475 69.7201 99.5023L47.4278 94.9653C21.3872 89.6391 7.9723 74.8443 7.9723 50.9754ZM162.909 154.539H132.528V5.80188H163.106V66.1647C169.222 57.6824 180.467 52.7507 193.289 52.7507C216.765 52.7507 230.377 67.7428 230.377 93.5844V154.539H199.997V100.883C199.997 88.4556 193.092 80.3677 182.637 80.3677C170.603 80.3677 162.909 88.2583 162.909 100.489V154.539ZM246.84 105.026C246.84 73.858 269.724 52.948 301.289 52.948C332.656 52.948 355.54 73.858 355.54 105.026C355.54 136.193 332.656 156.906 301.289 156.906C269.724 156.906 246.84 136.193 246.84 105.026ZM277.418 104.828C277.418 119.821 287.085 129.684 301.289 129.684C315.295 129.684 324.962 119.821 324.962 104.828C324.962 90.0337 315.295 80.1705 301.289 80.1705C287.085 80.1705 277.418 90.0337 277.418 104.828ZM373.152 201.882V55.907H401.757L403.335 67.9401C408.859 58.8659 421.288 52.7507 435.294 52.7507C462.716 52.7507 481.852 71.8854 481.852 103.645C481.852 134.813 464.886 157.301 435.491 157.301C421.879 157.301 409.254 152.172 403.533 144.676V201.882H373.152ZM403.73 105.223C403.73 120.018 413.594 129.881 427.798 129.881C442.199 129.881 451.274 119.821 451.274 105.223C451.274 90.6255 442.199 80.565 427.798 80.565C413.594 80.565 403.73 90.4282 403.73 105.223ZM492.24 123.371H521.042C521.437 130.276 526.566 134.418 535.838 134.418C545.307 134.418 549.647 131.065 549.647 125.936C549.647 122.977 548.069 119.821 540.77 118.242L522.62 114.297C504.471 110.352 495.593 102.461 495.593 85.1021C495.593 64.5866 513.151 52.7507 536.824 52.7507C559.708 52.7507 575.688 66.1647 575.688 86.0884H546.885C546.885 79.3814 542.743 74.8443 535.443 74.8443C528.539 74.8443 524.199 78.3951 524.199 83.7212C524.199 88.2583 527.947 90.8227 534.852 92.4008L553.198 96.3461C569.375 99.8969 578.253 107.393 578.253 123.174C578.253 144.281 560.3 157.103 534.654 157.103C508.614 157.103 492.24 143.295 492.24 123.371ZM633.976 154.539H603.595V81.1568H584.854V55.907H603.595V25.331H633.976V55.907H652.717V81.1568H633.976V154.539ZM711.177 157.103C681.388 157.103 660.082 135.404 660.082 105.026C660.082 74.2525 680.796 52.7507 710.585 52.7507C741.558 52.7507 760.891 73.069 760.891 105.223V112.916L689.279 113.311C691.055 126.33 698.354 132.445 711.769 132.445C723.211 132.445 731.299 128.303 733.469 121.201H761.285C757.734 143.098 738.204 157.103 711.177 157.103ZM710.782 77.4088C698.748 77.4088 692.041 82.7349 689.674 94.5707H730.707C730.707 84.1157 723.013 77.4088 710.782 77.4088ZM846.745 55.907V84.5103H837.078C819.718 84.5103 809.262 92.2036 809.262 111.733V154.539H778.882V56.1042H807.487L809.065 70.7018C813.208 61.0358 821.888 54.5261 835.106 54.5261C838.657 54.5261 842.602 54.9207 846.745 55.907Z" fill="#8AF5DE"/>
<path d="M6.03821 49.0414C6.03821 22.608 28.3305 3.86792 59.6976 3.86792C91.0647 3.86792 110.792 21.2272 110.792 48.8441H79.0308C79.0308 38.5864 71.337 32.274 59.3031 32.274C46.2828 32.274 37.9971 38.1919 37.9971 47.8578C37.9971 56.7347 42.5345 61.0745 52.7929 63.2444L74.6907 67.7815C100.731 73.1076 113.16 85.5353 113.16 108.615C113.16 136.824 91.0647 155.17 57.5276 155.17C24.9768 155.17 3.86816 137.613 3.86816 110.193H35.6298C35.6298 120.846 43.5209 126.763 57.7249 126.763C72.1261 126.763 81.2009 121.043 81.2009 111.771C81.2009 103.684 77.4526 99.541 67.786 97.5684L45.4937 93.0313C19.4531 87.7052 6.03821 72.9104 6.03821 49.0414ZM160.975 152.605H130.594V3.86792H161.172V64.2308C167.288 55.7484 178.533 50.8168 191.356 50.8168C214.831 50.8168 228.443 65.8089 228.443 91.6505V152.605H198.062V98.9492C198.062 86.5216 191.158 78.4338 180.703 78.4338C168.669 78.4338 160.975 86.3243 160.975 98.5547V152.605ZM244.906 103.092C244.906 71.924 267.79 51.014 299.355 51.014C330.722 51.014 353.606 71.924 353.606 103.092C353.606 134.26 330.722 154.972 299.355 154.972C267.79 154.972 244.906 134.26 244.906 103.092ZM275.484 102.895C275.484 117.887 285.151 127.75 299.355 127.75C313.361 127.75 323.028 117.887 323.028 102.895C323.028 88.0997 313.361 78.2365 299.355 78.2365C285.151 78.2365 275.484 88.0997 275.484 102.895ZM371.218 199.948V53.973H399.823L401.401 66.0061C406.925 56.932 419.353 50.8168 433.36 50.8168C460.782 50.8168 479.918 69.9514 479.918 101.711C479.918 132.879 462.952 155.367 433.557 155.367C419.945 155.367 407.32 150.238 401.598 142.742V199.948H371.218ZM401.796 103.289C401.796 118.084 411.66 127.947 425.864 127.947C440.265 127.947 449.34 117.887 449.34 103.289C449.34 88.6915 440.265 78.631 425.864 78.631C411.66 78.631 401.796 88.4942 401.796 103.289ZM490.306 121.437H519.108C519.503 128.342 524.632 132.484 533.904 132.484C543.373 132.484 547.713 129.131 547.713 124.002C547.713 121.043 546.135 117.887 538.836 116.308L520.686 112.363C502.537 108.418 493.659 100.527 493.659 83.1681C493.659 62.6526 511.217 50.8168 534.89 50.8168C557.774 50.8168 573.754 64.2307 573.754 84.1544H544.951C544.951 77.4474 540.809 72.9104 533.509 72.9104C526.605 72.9104 522.264 76.4611 522.264 81.7873C522.264 86.3243 526.013 88.8888 532.917 90.4669L551.264 94.4122C567.441 97.9629 576.318 105.459 576.318 121.24C576.318 142.347 558.366 155.17 532.72 155.17C506.68 155.17 490.306 141.361 490.306 121.437ZM632.042 152.605H601.661V79.2228H582.919V53.973H601.661V23.3971H632.042V53.973H650.783V79.2228H632.042V152.605ZM709.243 155.17C679.454 155.17 658.148 133.47 658.148 103.092C658.148 72.3186 678.862 50.8168 708.651 50.8168C739.623 50.8168 758.957 71.135 758.957 103.289V110.982L687.345 111.377C689.12 124.396 696.42 130.511 709.835 130.511C721.277 130.511 729.365 126.369 731.535 119.267H759.351C755.8 141.164 736.27 155.17 709.243 155.17ZM708.848 75.4748C696.814 75.4748 690.107 80.8009 687.74 92.6368H728.773C728.773 82.1818 721.079 75.4748 708.848 75.4748ZM844.811 53.973V82.5763H835.144C817.784 82.5763 807.328 90.2696 807.328 109.799V152.605H776.948V54.1703H805.553L807.131 68.7678C811.274 59.1019 819.954 52.5922 833.172 52.5922C836.723 52.5922 840.668 52.9867 844.811 53.973Z" fill="#ECECEC"/>
<path d="M4.10413 47.1075C4.10413 20.6741 26.3965 1.93396 57.7635 1.93396C89.1306 1.93396 108.858 19.2932 108.858 46.9102H77.0967C77.0967 36.6525 69.4029 30.34 57.369 30.34C44.3487 30.34 36.063 36.2579 36.063 45.9239C36.063 54.8007 40.6004 59.1406 50.8588 61.3105L72.7566 65.8475C98.7972 71.1737 111.226 83.6013 111.226 106.681C111.226 134.89 89.1306 153.236 55.5935 153.236C23.0428 153.236 1.93408 135.679 1.93408 108.259H33.6957C33.6957 118.912 41.5868 124.83 55.7908 124.83C70.192 124.83 79.2668 119.109 79.2668 109.837C79.2668 101.75 75.5185 97.6071 65.8519 95.6344L43.5596 91.0974C17.519 85.7712 4.10413 70.9764 4.10413 47.1075ZM159.041 150.671H128.66V1.93396H159.238V62.2968C165.354 53.8144 176.599 48.8828 189.422 48.8828C212.897 48.8828 226.509 63.8749 226.509 89.7165V150.671H196.128V97.0153C196.128 84.5876 189.224 76.4998 178.769 76.4998C166.735 76.4998 159.041 84.3904 159.041 96.6208V150.671ZM242.972 101.158C242.972 69.9901 265.856 49.0801 297.421 49.0801C328.788 49.0801 351.672 69.9901 351.672 101.158C351.672 132.326 328.788 153.038 297.421 153.038C265.856 153.038 242.972 132.326 242.972 101.158ZM273.55 100.961C273.55 115.953 283.217 125.816 297.421 125.816C311.427 125.816 321.094 115.953 321.094 100.961C321.094 86.1658 311.427 76.3026 297.421 76.3026C283.217 76.3026 273.55 86.1658 273.55 100.961ZM369.284 198.015V52.0391H397.889L399.467 64.0722C404.991 54.998 417.419 48.8828 431.426 48.8828C458.848 48.8828 477.983 68.0174 477.983 99.777C477.983 130.945 461.018 153.433 431.623 153.433C418.011 153.433 405.385 148.304 399.664 140.808V198.015H369.284ZM399.862 101.355C399.862 116.15 409.726 126.013 423.93 126.013C438.331 126.013 447.405 115.953 447.405 101.355C447.405 86.7575 438.331 76.6971 423.93 76.6971C409.726 76.6971 399.862 86.5603 399.862 101.355ZM488.371 119.503H517.174C517.569 126.408 522.698 130.55 531.97 130.55C541.439 130.55 545.779 127.197 545.779 122.068C545.779 119.109 544.201 115.953 536.902 114.375L518.752 110.429C500.603 106.484 491.725 98.5934 491.725 81.2342C491.725 60.7187 509.283 48.8828 532.956 48.8828C555.84 48.8828 571.82 62.2968 571.82 82.2205H543.017C543.017 75.5135 538.874 70.9764 531.575 70.9764C524.67 70.9764 520.33 74.5272 520.33 79.8533C520.33 84.3904 524.079 86.9548 530.983 88.5329L549.33 92.4782C565.507 96.029 574.384 103.525 574.384 119.306C574.384 140.413 556.432 153.236 530.786 153.236C504.746 153.236 488.371 139.427 488.371 119.503ZM630.107 150.671H599.727V77.2889H580.985V52.0391H599.727V21.4631H630.107V52.0391H648.849V77.2889H630.107V150.671ZM707.309 153.236C677.52 153.236 656.214 131.536 656.214 101.158C656.214 70.3846 676.928 48.8828 706.717 48.8828C737.689 48.8828 757.023 69.201 757.023 101.355V109.048L685.411 109.443C687.186 122.462 694.486 128.578 707.901 128.578C719.343 128.578 727.431 124.435 729.601 117.333H757.417C753.866 139.23 734.336 153.236 707.309 153.236ZM706.914 73.5408C694.88 73.5408 688.173 78.867 685.805 90.7028H726.839C726.839 80.2478 719.145 73.5408 706.914 73.5408ZM842.877 52.0391V80.6424H833.21C815.85 80.6424 805.394 88.3357 805.394 107.865V150.671H775.013V52.2363H803.619L805.197 66.8339C809.34 57.1679 818.02 50.6582 831.237 50.6582C834.788 50.6582 838.734 51.0527 842.877 52.0391Z" fill="#0F335F"/>
<path d="M2.17005 45.1735C2.17005 18.7401 24.4624 0 55.8295 0C87.1966 0 106.924 17.3592 106.924 44.9762H75.1626C75.1626 34.7185 67.4688 28.406 55.4349 28.406C42.4146 28.406 34.129 34.324 34.129 43.9899C34.129 52.8668 38.6663 57.2066 48.9248 59.3765L70.8225 63.9136C96.8631 69.2397 109.292 81.6674 109.292 104.747C109.292 132.956 87.1966 151.302 53.6594 151.302C21.1087 151.302 0 133.745 0 106.325H31.7616C31.7616 116.978 39.6527 122.896 53.8567 122.896C68.2579 122.896 77.3327 117.175 77.3327 107.903C77.3327 99.8157 73.5844 95.6731 63.9178 93.7005L41.6255 89.1634C15.5849 83.8373 2.17005 69.0425 2.17005 45.1735ZM157.107 148.737H126.726V0H157.304V60.3628C163.42 51.8805 174.664 46.9489 187.487 46.9489C210.963 46.9489 224.575 61.9409 224.575 87.7825V148.737H194.194V95.0813C194.194 82.6537 187.29 74.5658 176.835 74.5658C164.801 74.5658 157.107 82.4564 157.107 94.6868V148.737ZM241.038 99.2239C241.038 68.0561 263.922 47.1461 295.487 47.1461C326.854 47.1461 349.738 68.0561 349.738 99.2239C349.738 130.392 326.854 151.104 295.487 151.104C263.922 151.104 241.038 130.392 241.038 99.2239ZM271.616 99.0266C271.616 114.019 281.283 123.882 295.487 123.882C309.493 123.882 319.16 114.019 319.16 99.0266C319.16 84.2318 309.493 74.3686 295.487 74.3686C281.283 74.3686 271.616 84.2318 271.616 99.0266ZM367.35 196.081V50.1051H395.955L397.533 62.1382C403.057 53.0641 415.485 46.9489 429.492 46.9489C456.913 46.9489 476.049 66.0835 476.049 97.843C476.049 129.011 459.084 151.499 429.689 151.499C416.077 151.499 403.451 146.37 397.73 138.874V196.081H367.35ZM397.928 99.4211C397.928 114.216 407.791 124.079 421.995 124.079C436.397 124.079 445.471 114.019 445.471 99.4211C445.471 84.8236 436.397 74.7631 421.995 74.7631C407.791 74.7631 397.928 84.6263 397.928 99.4211ZM486.437 117.569H515.24C515.634 124.474 520.764 128.616 530.036 128.616C539.505 128.616 543.845 125.263 543.845 120.134C543.845 117.175 542.267 114.019 534.968 112.441L516.818 108.495C498.669 104.55 489.791 96.6594 489.791 79.3002C489.791 58.7847 507.349 46.9489 531.022 46.9489C553.906 46.9489 569.886 60.3628 569.886 80.2865H541.083C541.083 73.5795 536.94 69.0424 529.641 69.0424C522.736 69.0424 518.396 72.5932 518.396 77.9193C518.396 82.4564 522.145 85.0208 529.049 86.599L547.396 90.5442C563.573 94.095 572.45 101.591 572.45 117.372C572.45 138.479 554.498 151.302 528.852 151.302C502.811 151.302 486.437 137.493 486.437 117.569ZM628.173 148.737H597.793V75.3549H579.051V50.1051H597.793V19.5292H628.173V50.1051H646.915V75.3549H628.173V148.737ZM705.375 151.302C675.586 151.302 654.28 129.603 654.28 99.2239C654.28 68.4507 674.994 46.9489 704.783 46.9489C735.755 46.9489 755.088 67.2671 755.088 99.4211V107.114L683.477 107.509C685.252 120.528 692.552 126.644 705.966 126.644C717.409 126.644 725.497 122.501 727.667 115.4H755.483C751.932 137.296 732.402 151.302 705.375 151.302ZM704.98 71.6069C692.946 71.6069 686.239 76.933 683.871 88.7689H724.905C724.905 78.3139 717.211 71.6069 704.98 71.6069ZM840.943 50.1051V78.7084H831.276C813.916 78.7084 803.46 86.4017 803.46 105.931V148.737H773.079V50.3024H801.685L803.263 64.8999C807.406 55.234 816.086 48.7242 829.303 48.7242C832.854 48.7242 836.8 49.1188 840.943 50.1051Z" fill="#F70050"/>
</svg>
